<svg width="54" height="54" viewBox="0 0 54 54" fill="none" xmlns="http://www.w3.org/2000/svg">
<path d="M35.0775 32.3325C35.546 34.3149 35.5598 36.3777 35.1179 38.3662C34.676 40.3547 33.7898 42.2174 32.5258 43.8148C31.2617 45.4122 29.6526 46.7028 27.8189 47.5899C25.9852 48.4771 23.9745 48.9378 21.9375 48.9375V38.1375M35.0775 32.3325C39.3747 29.2023 42.8705 25.0999 45.2794 20.3604C47.6882 15.621 48.9417 10.379 48.9375 5.06251C43.6214 5.05867 38.3798 6.31235 33.6408 8.72116C28.9018 11.13 24.7998 14.6256 21.6697 18.9225M35.0775 32.3325C31.1668 35.1929 26.6857 37.1732 21.9375 38.1375M21.9375 38.1375C21.7057 38.1848 21.4718 38.2298 21.2378 38.2725C19.1965 36.6539 17.3484 34.8057 15.7298 32.7645C15.7723 32.53 15.815 32.296 15.8625 32.0625M21.6697 18.9225C19.6872 18.4536 17.6242 18.4395 15.6354 18.8812C13.6466 19.3229 11.7836 20.209 10.1859 21.4731C8.58826 22.7372 7.29742 24.3465 6.41013 26.1804C5.52285 28.0143 5.06213 30.0252 5.0625 32.0625H15.8625M21.6697 18.9225C18.8097 22.8326 16.8272 27.3151 15.8625 32.0625M10.8247 37.44C9.34466 38.5406 8.19388 40.0252 7.49706 41.733C6.80023 43.4407 6.5839 45.3066 6.8715 47.1285C8.69361 47.4159 10.5596 47.1992 12.2674 46.502C13.9752 45.8047 15.4596 44.6535 16.56 43.173M37.125 20.25C37.125 21.1451 36.7694 22.0036 36.1365 22.6365C35.5035 23.2694 34.6451 23.625 33.75 23.625C32.8549 23.625 31.9964 23.2694 31.3635 22.6365C30.7306 22.0036 30.375 21.1451 30.375 20.25C30.375 19.3549 30.7306 18.4965 31.3635 17.8635C31.9964 17.2306 32.8549 16.875 33.75 16.875C34.6451 16.875 35.5035 17.2306 36.1365 17.8635C36.7694 18.4965 37.125 19.3549 37.125 20.25Z" stroke="#333333" stroke-width="2" stroke-linecap="round" stroke-linejoin="round"/>
</svg>
