<svg width="67" height="40" viewBox="0 0 67 40" fill="none" xmlns="http://www.w3.org/2000/svg">
<g clip-path="url(#clip0_2_1913)">
<path d="M19.197 14.588C19.197 15.3861 19.2833 16.0332 19.4343 16.5077C19.6069 16.9823 19.8226 17.5 20.1245 18.0608C20.2324 18.2333 20.2755 18.4059 20.2755 18.5569C20.2755 18.7726 20.1461 18.9883 19.8657 19.204L18.5068 20.1099C18.3127 20.2393 18.1185 20.304 17.946 20.304C17.7303 20.304 17.5146 20.1962 17.2989 20.0021C16.9969 19.6785 16.7381 19.3334 16.5224 18.9883C16.3067 18.6216 16.091 18.2118 15.8537 17.7157C14.1713 19.7001 12.0574 20.6923 9.51218 20.6923C7.70032 20.6923 6.25514 20.1746 5.19822 19.1393C4.1413 18.1039 3.60205 16.7234 3.60205 14.9979C3.60205 13.1644 4.24915 11.6761 5.5649 10.5545C6.88066 9.43284 8.62782 8.87202 10.8495 8.87202C11.5829 8.87202 12.3378 8.93673 13.1359 9.04458C13.934 9.15243 14.7537 9.32499 15.6164 9.51912V7.94452C15.6164 6.30521 15.2713 5.16201 14.6027 4.49335C13.9124 3.82468 12.7477 3.50114 11.0868 3.50114C10.3318 3.50114 9.55532 3.58741 8.75724 3.78154C7.95916 3.97567 7.18264 4.21294 6.4277 4.51492C6.08258 4.66591 5.82374 4.75218 5.67275 4.79532C5.52177 4.83846 5.41392 4.86003 5.32764 4.86003C5.02566 4.86003 4.87467 4.64434 4.87467 4.19137V3.13445C4.87467 2.78933 4.91781 2.53049 5.02566 2.3795C5.13351 2.22852 5.32764 2.07753 5.62961 1.92654C6.38456 1.53828 7.29049 1.21473 8.34741 0.955896C9.40433 0.675488 10.526 0.546069 11.7123 0.546069C14.2791 0.546069 16.1557 1.12845 17.3636 2.29322C18.5499 3.458 19.1539 5.22672 19.1539 7.5994V14.588H19.197ZM10.4397 17.8666C11.1515 17.8666 11.8849 17.7372 12.6614 17.4784C13.4379 17.2195 14.1281 16.745 14.7105 16.0979C15.0556 15.6881 15.3145 15.2351 15.4439 14.7174C15.5733 14.1998 15.6596 13.5742 15.6596 12.8409V11.9349C15.0341 11.7839 14.3654 11.6545 13.6752 11.5682C12.9849 11.482 12.3163 11.4388 11.6476 11.4388C10.2024 11.4388 9.1455 11.7192 8.43369 12.3016C7.72189 12.884 7.37677 13.7037 7.37677 14.7822C7.37677 15.7959 7.63561 16.5509 8.17485 17.0686C8.69253 17.6078 9.44747 17.8666 10.4397 17.8666ZM27.7603 20.1962C27.372 20.1962 27.1132 20.1315 26.9406 19.9805C26.768 19.8511 26.6171 19.5491 26.4876 19.1393L21.4187 2.46578C21.2893 2.03439 21.2246 1.75398 21.2246 1.60299C21.2246 1.25787 21.3972 1.06375 21.7423 1.06375H23.8561C24.2659 1.06375 24.5464 1.12845 24.6973 1.27944C24.8699 1.40886 24.9993 1.71084 25.1287 2.12067L28.7525 16.3999L32.1174 2.12067C32.2252 1.68927 32.3546 1.40886 32.5272 1.27944C32.6997 1.15002 33.0017 1.06375 33.39 1.06375H35.1156C35.5254 1.06375 35.8058 1.12845 35.9784 1.27944C36.1509 1.40886 36.3019 1.71084 36.3882 2.12067L39.7962 16.5724L43.5278 2.12067C43.6572 1.68927 43.8082 1.40886 43.9592 1.27944C44.1317 1.15002 44.4122 1.06375 44.8004 1.06375H46.8064C47.1515 1.06375 47.3457 1.2363 47.3457 1.60299C47.3457 1.71084 47.3241 1.81869 47.3025 1.94811C47.2809 2.07753 47.2378 2.25009 47.1515 2.48735L41.9532 19.1608C41.8238 19.5922 41.6728 19.8726 41.5002 20.0021C41.3277 20.1315 41.0473 20.2177 40.6806 20.2177H38.8256C38.4157 20.2177 38.1353 20.153 37.9628 20.0021C37.7902 19.8511 37.6392 19.5707 37.553 19.1393L34.2096 5.22672L30.8879 19.1177C30.78 19.5491 30.6506 19.8295 30.4781 19.9805C30.3055 20.1315 30.0035 20.1962 29.6153 20.1962H27.7603ZM55.4775 20.7786C54.3558 20.7786 53.2342 20.6491 52.1557 20.3903C51.0772 20.1315 50.236 19.8511 49.6752 19.5275C49.3301 19.3334 49.0928 19.1177 49.0065 18.9236C48.9202 18.7294 48.8771 18.5137 48.8771 18.3196V17.2195C48.8771 16.7666 49.0497 16.5509 49.3732 16.5509C49.5026 16.5509 49.6321 16.5725 49.7615 16.6156C49.8909 16.6587 50.085 16.745 50.3007 16.8313C51.0341 17.1548 51.8322 17.4137 52.6734 17.5862C53.5362 17.7588 54.3774 17.8451 55.2402 17.8451C56.5991 17.8451 57.656 17.6078 58.3894 17.1333C59.1228 16.6587 59.511 15.9685 59.511 15.0841C59.511 14.4802 59.3169 13.9841 58.9286 13.5742C58.5404 13.1644 57.807 12.7977 56.7501 12.4526L53.6225 11.482C52.0479 10.9859 50.8831 10.2525 50.1713 9.28185C49.4595 8.33278 49.0928 7.27585 49.0928 6.15422C49.0928 5.24829 49.2869 4.45021 49.6752 3.75997C50.0634 3.06974 50.5811 2.46578 51.2282 1.99125C51.8753 1.49514 52.6087 1.12845 53.4715 0.869617C54.3343 0.610779 55.2402 0.50293 56.1893 0.50293C56.6638 0.50293 57.1599 0.5245 57.6345 0.589209C58.1306 0.653918 58.5835 0.740198 59.0365 0.826477C59.4679 0.934326 59.8777 1.04218 60.266 1.17159C60.6542 1.30101 60.9562 1.43043 61.1719 1.55985C61.4739 1.73241 61.6896 1.90497 61.819 2.0991C61.9484 2.27166 62.0131 2.50892 62.0131 2.8109V3.82468C62.0131 4.27765 61.8406 4.51492 61.517 4.51492C61.3445 4.51492 61.0641 4.42864 60.6974 4.25608C59.4679 3.69526 58.0874 3.41486 56.556 3.41486C55.3265 3.41486 54.3558 3.60898 53.6872 4.01881C53.0185 4.42864 52.6734 5.05416 52.6734 5.93853C52.6734 6.54248 52.8891 7.06016 53.3205 7.46998C53.7519 7.87981 54.55 8.28964 55.6932 8.65632L58.7561 9.62697C60.3091 10.1231 61.4307 10.8133 62.0994 11.6977C62.7681 12.582 63.0916 13.5958 63.0916 14.7174C63.0916 15.6449 62.8975 16.4862 62.5308 17.2195C62.1426 17.9529 61.6249 18.6 60.9562 19.1177C60.2875 19.6569 59.4895 20.0452 58.562 20.3256C57.5913 20.6276 56.5775 20.7786 55.4775 20.7786Z" fill="#252F3E"/>
<path fill-rule="evenodd" clip-rule="evenodd" d="M59.5541 31.2608C52.4576 36.5022 42.1472 39.2848 33.2821 39.2848C20.8578 39.2848 9.6631 34.6904 1.20772 27.0547C0.539059 26.4507 1.14301 25.6311 1.9411 26.1056C11.0867 31.4118 22.3677 34.6257 34.037 34.6257C41.91 34.6257 50.5595 32.9864 58.5188 29.6215C59.7051 29.0822 60.7189 30.398 59.5541 31.2608Z" fill="#FF9900"/>
<path fill-rule="evenodd" clip-rule="evenodd" d="M62.5093 27.8962C61.6034 26.7315 56.5129 27.3354 54.2049 27.6158C53.5147 27.7021 53.4068 27.0982 54.0323 26.6452C58.0875 23.798 64.7525 24.6176 65.5291 25.5667C66.3056 26.5373 65.3134 33.2024 61.5171 36.3948C60.9347 36.8909 60.3739 36.632 60.6327 35.9849C61.4955 33.8495 63.4152 29.0394 62.5093 27.8962Z" fill="#FF9900"/>
<mask id="mask0_2_1913" style="mask-type:alpha" maskUnits="userSpaceOnUse" x="0" y="0" width="66" height="40">
<path d="M19.197 14.588C19.197 15.3861 19.2833 16.0332 19.4343 16.5077C19.6069 16.9823 19.8226 17.5 20.1245 18.0608C20.2324 18.2333 20.2755 18.4059 20.2755 18.5569C20.2755 18.7726 20.1461 18.9883 19.8657 19.204L18.5068 20.1099C18.3127 20.2393 18.1185 20.304 17.946 20.304C17.7303 20.304 17.5146 20.1962 17.2989 20.0021C16.9969 19.6785 16.7381 19.3334 16.5224 18.9883C16.3067 18.6216 16.091 18.2118 15.8537 17.7157C14.1713 19.7001 12.0574 20.6923 9.51218 20.6923C7.70032 20.6923 6.25514 20.1746 5.19822 19.1393C4.1413 18.1039 3.60205 16.7234 3.60205 14.9979C3.60205 13.1644 4.24915 11.6761 5.5649 10.5545C6.88066 9.43284 8.62782 8.87202 10.8495 8.87202C11.5829 8.87202 12.3378 8.93673 13.1359 9.04458C13.934 9.15243 14.7537 9.32499 15.6164 9.51912V7.94452C15.6164 6.30521 15.2713 5.16201 14.6027 4.49335C13.9124 3.82468 12.7477 3.50114 11.0868 3.50114C10.3318 3.50114 9.55532 3.58741 8.75724 3.78154C7.95916 3.97567 7.18264 4.21294 6.4277 4.51492C6.08258 4.66591 5.82374 4.75218 5.67275 4.79532C5.52177 4.83846 5.41392 4.86003 5.32764 4.86003C5.02566 4.86003 4.87467 4.64434 4.87467 4.19137V3.13445C4.87467 2.78933 4.91781 2.53049 5.02566 2.3795C5.13351 2.22852 5.32764 2.07753 5.62961 1.92654C6.38456 1.53828 7.29049 1.21473 8.34741 0.955896C9.40433 0.675488 10.526 0.546069 11.7123 0.546069C14.2791 0.546069 16.1557 1.12845 17.3636 2.29322C18.5499 3.458 19.1539 5.22672 19.1539 7.5994V14.588H19.197ZM10.4397 17.8666C11.1515 17.8666 11.8849 17.7372 12.6614 17.4784C13.4379 17.2195 14.1281 16.745 14.7105 16.0979C15.0556 15.6881 15.3145 15.2351 15.4439 14.7174C15.5733 14.1998 15.6596 13.5742 15.6596 12.8409V11.9349C15.0341 11.7839 14.3654 11.6545 13.6752 11.5682C12.9849 11.482 12.3163 11.4388 11.6476 11.4388C10.2024 11.4388 9.1455 11.7192 8.43369 12.3016C7.72189 12.884 7.37677 13.7037 7.37677 14.7822C7.37677 15.7959 7.63561 16.5509 8.17485 17.0686C8.69253 17.6078 9.44747 17.8666 10.4397 17.8666ZM27.7603 20.1962C27.372 20.1962 27.1132 20.1315 26.9406 19.9805C26.768 19.8511 26.6171 19.5491 26.4876 19.1393L21.4187 2.46578C21.2893 2.03439 21.2246 1.75398 21.2246 1.60299C21.2246 1.25787 21.3972 1.06375 21.7423 1.06375H23.8561C24.2659 1.06375 24.5464 1.12845 24.6973 1.27944C24.8699 1.40886 24.9993 1.71084 25.1287 2.12067L28.7525 16.3999L32.1174 2.12067C32.2252 1.68927 32.3546 1.40886 32.5272 1.27944C32.6997 1.15002 33.0017 1.06375 33.39 1.06375H35.1156C35.5254 1.06375 35.8058 1.12845 35.9784 1.27944C36.1509 1.40886 36.3019 1.71084 36.3882 2.12067L39.7962 16.5724L43.5278 2.12067C43.6572 1.68927 43.8082 1.40886 43.9592 1.27944C44.1317 1.15002 44.4122 1.06375 44.8004 1.06375H46.8064C47.1515 1.06375 47.3457 1.2363 47.3457 1.60299C47.3457 1.71084 47.3241 1.81869 47.3025 1.94811C47.2809 2.07753 47.2378 2.25009 47.1515 2.48735L41.9532 19.1608C41.8238 19.5922 41.6728 19.8726 41.5002 20.0021C41.3277 20.1315 41.0473 20.2177 40.6806 20.2177H38.8256C38.4157 20.2177 38.1353 20.153 37.9628 20.0021C37.7902 19.8511 37.6392 19.5707 37.553 19.1393L34.2096 5.22672L30.8879 19.1177C30.78 19.5491 30.6506 19.8295 30.4781 19.9805C30.3055 20.1315 30.0035 20.1962 29.6153 20.1962H27.7603ZM55.4775 20.7786C54.3558 20.7786 53.2342 20.6491 52.1557 20.3903C51.0772 20.1315 50.236 19.8511 49.6752 19.5275C49.3301 19.3334 49.0928 19.1177 49.0065 18.9236C48.9202 18.7294 48.8771 18.5137 48.8771 18.3196V17.2195C48.8771 16.7666 49.0497 16.5509 49.3732 16.5509C49.5026 16.5509 49.6321 16.5725 49.7615 16.6156C49.8909 16.6587 50.085 16.745 50.3007 16.8313C51.0341 17.1548 51.8322 17.4137 52.6734 17.5862C53.5362 17.7588 54.3774 17.8451 55.2402 17.8451C56.5991 17.8451 57.656 17.6078 58.3894 17.1333C59.1228 16.6587 59.511 15.9685 59.511 15.0841C59.511 14.4802 59.3169 13.9841 58.9286 13.5742C58.5404 13.1644 57.807 12.7977 56.7501 12.4526L53.6225 11.482C52.0479 10.9859 50.8831 10.2525 50.1713 9.28185C49.4595 8.33278 49.0928 7.27585 49.0928 6.15422C49.0928 5.24829 49.2869 4.45021 49.6752 3.75997C50.0634 3.06974 50.5811 2.46578 51.2282 1.99125C51.8753 1.49514 52.6087 1.12845 53.4715 0.869617C54.3343 0.610779 55.2402 0.50293 56.1893 0.50293C56.6638 0.50293 57.1599 0.5245 57.6345 0.589209C58.1306 0.653918 58.5835 0.740198 59.0365 0.826477C59.4679 0.934326 59.8777 1.04218 60.266 1.17159C60.6542 1.30101 60.9562 1.43043 61.1719 1.55985C61.4739 1.73241 61.6896 1.90497 61.819 2.0991C61.9484 2.27166 62.0131 2.50892 62.0131 2.8109V3.82468C62.0131 4.27765 61.8406 4.51492 61.517 4.51492C61.3445 4.51492 61.0641 4.42864 60.6974 4.25608C59.4679 3.69526 58.0874 3.41486 56.556 3.41486C55.3265 3.41486 54.3558 3.60898 53.6872 4.01881C53.0185 4.42864 52.6734 5.05416 52.6734 5.93853C52.6734 6.54248 52.8891 7.06016 53.3205 7.46998C53.7519 7.87981 54.55 8.28964 55.6932 8.65632L58.7561 9.62697C60.3091 10.1231 61.4307 10.8133 62.0994 11.6977C62.7681 12.582 63.0916 13.5958 63.0916 14.7174C63.0916 15.6449 62.8975 16.4862 62.5308 17.2195C62.1426 17.9529 61.6249 18.6 60.9562 19.1177C60.2875 19.6569 59.4895 20.0452 58.562 20.3256C57.5913 20.6276 56.5775 20.7786 55.4775 20.7786Z" fill="#252F3E"/>
<path fill-rule="evenodd" clip-rule="evenodd" d="M59.5541 31.2608C52.4576 36.5022 42.1472 39.2848 33.2821 39.2848C20.8578 39.2848 9.6631 34.6904 1.20772 27.0547C0.539059 26.4507 1.14301 25.6311 1.9411 26.1056C11.0867 31.4118 22.3677 34.6257 34.037 34.6257C41.91 34.6257 50.5595 32.9864 58.5188 29.6215C59.7051 29.0822 60.7189 30.398 59.5541 31.2608Z" fill="#FF9900"/>
<path fill-rule="evenodd" clip-rule="evenodd" d="M62.5093 27.8962C61.6034 26.7315 56.5129 27.3354 54.2049 27.6158C53.5147 27.7021 53.4068 27.0982 54.0323 26.6452C58.0875 23.798 64.7525 24.6176 65.5291 25.5667C66.3056 26.5373 65.3134 33.2024 61.5171 36.3948C60.9347 36.8909 60.3739 36.632 60.6327 35.9849C61.4955 33.8495 63.4152 29.0394 62.5093 27.8962Z" fill="#FF9900"/>
</mask>
<g mask="url(#mask0_2_1913)">
<rect x="-6.5" y="-5" width="80" height="50" fill="#ACB5BB"/>
</g>
</g>
<defs>
<clipPath id="clip0_2_1913">
<rect width="65.5723" height="39.2571" fill="white" transform="translate(0.560547 0.265625)"/>
</clipPath>
</defs>
</svg>
