<svg width="123" height="36" viewBox="0 0 123 36" fill="none" xmlns="http://www.w3.org/2000/svg">
<g clip-path="url(#clip0_2_1928)">
<path d="M21.2519 33.6856C27.117 32.6495 31.9612 31.7922 32.0168 31.7804L32.118 31.7589L26.5808 25.1726C23.5354 21.5501 21.0436 18.5723 21.0436 18.5551C21.0436 18.5226 26.7612 2.77752 26.7934 2.7215C26.8041 2.70277 30.6951 9.42049 36.2254 19.0057C41.403 27.9795 45.6717 35.3785 45.7113 35.4478L45.7835 35.5739L28.1859 35.5716L10.5882 35.5694L21.2519 33.6856ZM88.7368 32.0927C86.0581 31.921 84.5002 30.3957 84.0873 27.5406C83.9775 26.7811 83.9771 26.7614 83.9658 21.8308L83.955 17.0589H85.1405H86.326L86.3354 21.6746C86.3438 25.8346 86.349 26.3224 86.3888 26.615C86.5502 27.8027 86.8716 28.6014 87.4187 29.1747C87.8565 29.6335 88.3691 29.9021 89.0786 30.0447C89.4134 30.1119 90.3656 30.1121 90.6708 30.045C91.3902 29.8867 91.9667 29.5736 92.4753 29.0652C93.055 28.4858 93.4838 27.6636 93.6913 26.7339L93.7613 26.4206L93.7691 21.7658L93.7768 17.111H94.9872H96.1975V24.4285V31.746H94.9997H93.8018V30.585C93.8018 29.7961 93.7931 29.4269 93.7748 29.433C93.76 29.4379 93.6985 29.532 93.6381 29.6421C93.2253 30.3949 92.5375 31.0834 91.7839 31.4982C90.8806 31.9954 89.9746 32.1721 88.7368 32.0927ZM115.926 32.0809C114.98 32.0098 113.985 31.6847 113.171 31.1814C111.456 30.1204 110.441 28.3715 110.144 25.9648C110.041 25.132 110.028 24.0133 110.114 23.3057C110.306 21.7244 110.927 20.1722 111.812 19.064C112.039 18.7799 112.554 18.2654 112.838 18.0385C113.605 17.4261 114.502 16.9978 115.455 16.7894C116.01 16.6679 116.987 16.6109 117.577 16.6656C119.059 16.8029 120.416 17.5004 121.339 18.5983C122.277 19.7137 122.792 21.2723 122.858 23.1915C122.868 23.4922 122.871 24.0196 122.864 24.3633L122.85 24.9883L117.662 24.9949L112.473 25.0014V25.233C112.473 25.9379 112.644 26.7407 112.941 27.4237C113.196 28.0128 113.636 28.656 113.996 28.9672C114.734 29.6055 115.638 29.9875 116.627 30.0794C116.993 30.1135 117.927 30.0776 118.345 30.0134C119.537 29.8302 120.67 29.3627 121.586 28.6766C121.693 28.5959 121.796 28.5205 121.815 28.509C121.841 28.4923 121.848 28.7032 121.847 29.5897L121.846 30.6912L121.601 30.8429C120.566 31.4832 119.38 31.8943 118.124 32.0482C117.749 32.0941 116.374 32.1146 115.926 32.0809ZM120.442 22.7906C120.442 21.6099 119.944 20.2983 119.24 19.6229C118.737 19.1409 118.13 18.8463 117.408 18.7345C117.066 18.6816 116.346 18.702 115.986 18.7747C115.224 18.9286 114.595 19.2634 114.045 19.8062C113.467 20.3774 113.034 21.0713 112.761 21.8619C112.663 22.1462 112.548 22.6129 112.513 22.8725L112.496 22.9962H116.469H120.442V22.7906ZM50.0586 31.7133C50.0647 31.6954 51.8266 27.0667 53.974 21.4273L57.8784 11.1738L59.1329 11.1737L60.3874 11.1736L60.4915 11.4406C60.8096 12.2562 68.3078 31.7237 68.3078 31.7338C68.3078 31.7404 67.7072 31.7458 66.9732 31.7457L65.6386 31.7454L64.5579 28.8682L63.4772 25.9909L59.1258 25.9909L54.7744 25.9908L54.7366 26.0885C54.7158 26.1422 54.2541 27.4368 53.7106 28.9655L52.7223 31.7449L51.3849 31.7454C50.3263 31.7457 50.0499 31.7391 50.0586 31.7133ZM62.683 23.7951C62.683 23.7906 61.9557 21.819 61.0668 19.4138C59.4039 14.9141 59.3108 14.6433 59.1794 13.9209C59.1178 13.5822 59.0867 13.5728 59.0501 13.8819C59.024 14.1028 58.9106 14.5972 58.8232 14.8714C58.7799 15.0075 58.031 17.0628 57.1591 19.4388C56.2872 21.8149 55.5738 23.7689 55.5738 23.7812C55.5738 23.7934 57.1734 23.8034 59.1284 23.8034C61.0834 23.8034 62.683 23.7997 62.683 23.7951ZM69.115 31.3712V30.9964L73.4503 25.0367L77.7857 19.077L73.8605 19.064L69.9353 19.051L69.9285 18.0549L69.9217 17.0589H75.5989H81.2761V17.3953V17.7317L76.9403 23.7239C74.5556 27.0196 72.6045 29.7217 72.6045 29.7284C72.6045 29.7352 74.5322 29.7408 76.8882 29.7408H81.172V30.7433V31.7459H75.1435H69.115V31.3712ZM100.928 31.7285C100.919 31.719 100.911 28.4144 100.911 24.385V17.0589H102.096H103.281V18.5692C103.281 19.3999 103.291 20.0796 103.303 20.0796C103.315 20.0796 103.373 19.9436 103.431 19.7774C103.698 19.0159 104.16 18.3043 104.755 17.7387C105.291 17.2292 105.904 16.9245 106.627 16.8079C106.83 16.7752 107.002 16.7689 107.408 16.7795C107.918 16.7928 108.185 16.8301 108.495 16.9315L108.593 16.9634V18.1933V19.4232L108.313 19.283C107.819 19.0355 107.331 18.9376 106.744 18.9681C106.362 18.9879 106.112 19.0369 105.807 19.1515C105.179 19.3871 104.669 19.8031 104.313 20.3709C103.798 21.1928 103.431 22.2494 103.322 23.2204C103.303 23.3947 103.291 24.814 103.287 27.6119L103.28 31.7459H102.113C101.471 31.7459 100.938 31.7381 100.928 31.7285ZM0.132812 31.6771C0.132812 31.6678 2.74191 27.1386 5.9308 21.6122L11.7288 11.5642L18.4857 5.89384C22.202 2.77512 25.2526 0.219632 25.2648 0.214972C25.277 0.210312 25.2281 0.333355 25.1562 0.488401C25.0842 0.643447 21.7825 7.72516 17.8191 16.2255L10.613 31.6808L5.3729 31.6874C2.49085 31.691 0.132812 31.6864 0.132812 31.6771Z" fill="#0089D6"/>
<mask id="mask0_2_1928" style="mask-type:alpha" maskUnits="userSpaceOnUse" x="0" y="0" width="123" height="36">
<path d="M21.2519 33.6856C27.117 32.6495 31.9612 31.7922 32.0168 31.7804L32.118 31.7589L26.5808 25.1726C23.5354 21.5501 21.0436 18.5723 21.0436 18.5551C21.0436 18.5226 26.7612 2.77752 26.7934 2.7215C26.8041 2.70277 30.6951 9.42049 36.2254 19.0057C41.403 27.9795 45.6717 35.3785 45.7113 35.4478L45.7835 35.5739L28.1859 35.5716L10.5882 35.5694L21.2519 33.6856ZM88.7368 32.0927C86.0581 31.921 84.5002 30.3957 84.0873 27.5406C83.9775 26.7811 83.9771 26.7614 83.9658 21.8308L83.955 17.0589H85.1405H86.326L86.3354 21.6746C86.3438 25.8346 86.349 26.3224 86.3888 26.615C86.5502 27.8027 86.8716 28.6014 87.4187 29.1747C87.8565 29.6335 88.3691 29.9021 89.0786 30.0447C89.4134 30.1119 90.3656 30.1121 90.6708 30.045C91.3902 29.8867 91.9667 29.5736 92.4753 29.0652C93.055 28.4858 93.4838 27.6636 93.6913 26.7339L93.7613 26.4206L93.7691 21.7658L93.7768 17.111H94.9872H96.1975V24.4285V31.746H94.9997H93.8018V30.585C93.8018 29.7961 93.7931 29.4269 93.7748 29.433C93.76 29.4379 93.6985 29.532 93.6381 29.6421C93.2253 30.3949 92.5375 31.0834 91.7839 31.4982C90.8806 31.9954 89.9746 32.1721 88.7368 32.0927ZM115.926 32.0809C114.98 32.0098 113.985 31.6847 113.171 31.1814C111.456 30.1204 110.441 28.3715 110.144 25.9648C110.041 25.132 110.028 24.0133 110.114 23.3057C110.306 21.7244 110.927 20.1722 111.812 19.064C112.039 18.7799 112.554 18.2654 112.838 18.0385C113.605 17.4261 114.502 16.9978 115.455 16.7894C116.01 16.6679 116.987 16.6109 117.577 16.6656C119.059 16.8029 120.416 17.5004 121.339 18.5983C122.277 19.7137 122.792 21.2723 122.858 23.1915C122.868 23.4922 122.871 24.0196 122.864 24.3633L122.85 24.9883L117.662 24.9949L112.473 25.0014V25.233C112.473 25.9379 112.644 26.7407 112.941 27.4237C113.196 28.0128 113.636 28.656 113.996 28.9672C114.734 29.6055 115.638 29.9875 116.627 30.0794C116.993 30.1135 117.927 30.0776 118.345 30.0134C119.537 29.8302 120.67 29.3627 121.586 28.6766C121.693 28.5959 121.796 28.5205 121.815 28.509C121.841 28.4923 121.848 28.7032 121.847 29.5897L121.846 30.6912L121.601 30.8429C120.566 31.4832 119.38 31.8943 118.124 32.0482C117.749 32.0941 116.374 32.1146 115.926 32.0809ZM120.442 22.7906C120.442 21.6099 119.944 20.2983 119.24 19.6229C118.737 19.1409 118.13 18.8463 117.408 18.7345C117.066 18.6816 116.346 18.702 115.986 18.7747C115.224 18.9286 114.595 19.2634 114.045 19.8062C113.467 20.3774 113.034 21.0713 112.761 21.8619C112.663 22.1462 112.548 22.6129 112.513 22.8725L112.496 22.9962H116.469H120.442V22.7906ZM50.0586 31.7133C50.0647 31.6954 51.8266 27.0667 53.974 21.4273L57.8784 11.1738L59.1329 11.1737L60.3874 11.1736L60.4915 11.4406C60.8096 12.2562 68.3078 31.7237 68.3078 31.7338C68.3078 31.7404 67.7072 31.7458 66.9732 31.7457L65.6386 31.7454L64.5579 28.8682L63.4772 25.9909L59.1258 25.9909L54.7744 25.9908L54.7366 26.0885C54.7158 26.1422 54.2541 27.4368 53.7106 28.9655L52.7223 31.7449L51.3849 31.7454C50.3263 31.7457 50.0499 31.7391 50.0586 31.7133ZM62.683 23.7951C62.683 23.7906 61.9557 21.819 61.0668 19.4138C59.4039 14.9141 59.3108 14.6433 59.1794 13.9209C59.1178 13.5822 59.0867 13.5728 59.0501 13.8819C59.024 14.1028 58.9106 14.5972 58.8232 14.8714C58.7799 15.0075 58.031 17.0628 57.1591 19.4388C56.2872 21.8149 55.5738 23.7689 55.5738 23.7812C55.5738 23.7934 57.1734 23.8034 59.1284 23.8034C61.0834 23.8034 62.683 23.7997 62.683 23.7951ZM69.115 31.3712V30.9964L73.4503 25.0367L77.7857 19.077L73.8605 19.064L69.9353 19.051L69.9285 18.0549L69.9217 17.0589H75.5989H81.2761V17.3953V17.7317L76.9403 23.7239C74.5556 27.0196 72.6045 29.7217 72.6045 29.7284C72.6045 29.7352 74.5322 29.7408 76.8882 29.7408H81.172V30.7433V31.7459H75.1435H69.115V31.3712ZM100.928 31.7285C100.919 31.719 100.911 28.4144 100.911 24.385V17.0589H102.096H103.281V18.5692C103.281 19.3999 103.291 20.0796 103.303 20.0796C103.315 20.0796 103.373 19.9436 103.431 19.7774C103.698 19.0159 104.16 18.3043 104.755 17.7387C105.291 17.2292 105.904 16.9245 106.627 16.8079C106.83 16.7752 107.002 16.7689 107.408 16.7795C107.918 16.7928 108.185 16.8301 108.495 16.9315L108.593 16.9634V18.1933V19.4232L108.313 19.283C107.819 19.0355 107.331 18.9376 106.744 18.9681C106.362 18.9879 106.112 19.0369 105.807 19.1515C105.179 19.3871 104.669 19.8031 104.313 20.3709C103.798 21.1928 103.431 22.2494 103.322 23.2204C103.303 23.3947 103.291 24.814 103.287 27.6119L103.28 31.7459H102.113C101.471 31.7459 100.938 31.7381 100.928 31.7285ZM0.132812 31.6771C0.132812 31.6678 2.74191 27.1386 5.9308 21.6122L11.7288 11.5642L18.4857 5.89384C22.202 2.77512 25.2526 0.219632 25.2648 0.214972C25.277 0.210312 25.2281 0.333355 25.1562 0.488401C25.0842 0.643447 21.7825 7.72516 17.8191 16.2255L10.613 31.6808L5.3729 31.6874C2.49085 31.691 0.132812 31.6864 0.132812 31.6771Z" fill="#0089D6"/>
</mask>
<g mask="url(#mask0_2_1928)">
<rect x="-8.5" y="-7" width="140" height="50" fill="#ACB5BB"/>
</g>
</g>
<defs>
<clipPath id="clip0_2_1928">
<rect width="122.735" height="35.3591" fill="white" transform="translate(0.132812 0.214844)"/>
</clipPath>
</defs>
</svg>
