<svg width="54" height="54" viewBox="0 0 54 54" fill="none" xmlns="http://www.w3.org/2000/svg">
<path d="M27.0011 40.5V28.6875M27.0011 28.6875C28.1395 28.6884 29.2735 28.5455 30.3761 28.2623M27.0011 28.6875C25.8627 28.6884 24.7287 28.5455 23.6261 28.2623M32.0636 45.0878C28.7185 45.723 25.2837 45.723 21.9386 45.0878M30.3761 50.4495C28.1323 50.6844 25.87 50.6844 23.6261 50.4495M32.0636 40.5V40.068C32.0636 37.8563 33.5441 35.9663 35.4566 34.857C38.6696 32.9964 41.1793 30.128 42.5968 26.6964C44.0143 23.2647 44.2605 19.4614 43.2971 15.8757C42.3338 12.2899 40.2148 9.122 37.2685 6.86271C34.3221 4.60342 30.7129 3.37891 27 3.37891C23.2871 3.37891 19.6779 4.60342 16.7315 6.86271C13.7852 9.122 11.6662 12.2899 10.7029 15.8757C9.73956 19.4614 9.98572 23.2647 11.4032 26.6964C12.8207 30.128 15.3304 32.9964 18.5434 34.857C20.4559 35.9663 21.9386 37.8563 21.9386 40.068V40.5" stroke="#333333" stroke-width="2" stroke-linecap="round" stroke-linejoin="round"/>
</svg>
