<svg width="55" height="54" viewBox="0 0 55 54" fill="none" xmlns="http://www.w3.org/2000/svg">
<path d="M35.9375 35.4375V40.5M19.0625 25.3125H19.0805V25.3305H19.0625V25.3125ZM19.0625 30.375H19.0805V30.393H19.0625V30.375ZM19.0625 35.4375H19.0805V35.4555H19.0625V35.4375ZM19.0625 40.5H19.0805V40.518H19.0625V40.5ZM24.683 25.3125H24.6988V25.3305H24.683V25.3125ZM24.683 30.375H24.6988V30.393H24.683V30.375ZM24.683 35.4375H24.6988V35.4555H24.683V35.4375ZM24.683 40.5H24.6988V40.518H24.683V40.5ZM30.317 25.3125H30.335V25.3305H30.317V25.3125ZM30.317 30.375H30.335V30.393H30.317V30.375ZM30.317 35.4375H30.335V35.4555H30.317V35.4375ZM30.317 40.5H30.335V40.518H30.317V40.5ZM35.9375 25.3125H35.9555V25.3305H35.9375V25.3125ZM35.9375 30.375H35.9555V30.393H35.9375V30.375ZM19.0625 13.5H35.9375V18.5625H19.0625V13.5ZM27.5 5.0625C23.243 5.0625 19.0445 5.31 14.9158 5.787C12.4407 6.075 10.625 8.2125 10.625 10.7033V43.875C10.625 45.2177 11.1584 46.5053 12.1078 47.4547C13.0572 48.4041 14.3448 48.9375 15.6875 48.9375H39.3125C40.6552 48.9375 41.9428 48.4041 42.8922 47.4547C43.8416 46.5053 44.375 45.2177 44.375 43.875V10.7033C44.375 8.21025 42.5615 6.075 40.0843 5.787C35.907 5.30327 31.7052 5.06137 27.5 5.0625Z" stroke="#333333" stroke-width="2" stroke-linecap="round" stroke-linejoin="round"/>
</svg>
