<svg width="53" height="56" viewBox="0 0 53 56" fill="none" xmlns="http://www.w3.org/2000/svg">
<g clip-path="url(#clip0_2_1898)">
<path d="M30.2617 8.58105V17.1642L45.127 25.7474V17.1642L30.2617 8.58105ZM0.530273 17.1642V25.7474L7.96292 30.0381V21.4558L0.530273 17.1642ZM22.8282 21.4558L15.3956 25.7474V51.4951L22.8282 55.7866V38.6212L30.2617 42.9128V34.3296L22.8282 30.0381V21.4558Z" fill="#E55B2D"/>
<path d="M30.2617 8.58105L7.96289 21.4558V30.0381L22.8282 21.4558V30.0381L30.2617 25.7474V8.58105ZM52.5605 12.8726L45.127 17.1642V25.7474L52.5605 21.4558V12.8726ZM37.6943 30.0381L30.2617 34.3296V42.9128L37.6943 38.6212V30.0381ZM30.2617 42.9128L22.8282 38.6212V55.7866L30.2617 51.4951V42.9128Z" fill="#ED8E24"/>
<path d="M30.2617 -0.000976562L0.530273 17.1644L7.96292 21.456L30.2617 8.58129L45.127 17.1644L52.5605 12.8729L30.2617 -0.000976562ZM30.2617 25.7476L22.8282 30.0383L30.2617 34.3299L37.6944 30.0383L30.2617 25.7476Z" fill="#F8BF3C"/>
<mask id="mask0_2_1898" style="mask-type:alpha" maskUnits="userSpaceOnUse" x="0" y="-1" width="53" height="57">
<path d="M30.2617 8.58105V17.1642L45.127 25.7474V17.1642L30.2617 8.58105ZM0.530273 17.1642V25.7474L7.96292 30.0381V21.4558L0.530273 17.1642ZM22.8282 21.4558L15.3956 25.7474V51.4951L22.8282 55.7866V38.6212L30.2617 42.9128V34.3296L22.8282 30.0381V21.4558Z" fill="#E55B2D"/>
<path d="M30.2617 8.58105L7.96289 21.4558V30.0381L22.8282 21.4558V30.0381L30.2617 25.7474V8.58105ZM52.5605 12.8726L45.127 17.1642V25.7474L52.5605 21.4558V12.8726ZM37.6943 30.0381L30.2617 34.3296V42.9128L37.6943 38.6212V30.0381ZM30.2617 42.9128L22.8282 38.6212V55.7866L30.2617 51.4951V42.9128Z" fill="#ED8E24"/>
<path d="M30.2617 -0.000976562L0.530273 17.1644L7.96292 21.456L30.2617 8.58129L45.127 17.1644L52.5605 12.8729L30.2617 -0.000976562ZM30.2617 25.7476L22.8282 30.0383L30.2617 34.3299L37.6944 30.0383L30.2617 25.7476Z" fill="#F8BF3C"/>
</mask>
<g mask="url(#mask0_2_1898)">
<rect x="-4.5" y="-7" width="62" height="70" fill="#ACB5BB"/>
</g>
</g>
<defs>
<clipPath id="clip0_2_1898">
<rect width="52.0303" height="55.7878" fill="white" transform="translate(0.530273)"/>
</clipPath>
</defs>
</svg>
