<svg width="24" height="24" viewBox="0 0 24 24" fill="none" xmlns="http://www.w3.org/2000/svg">
<g clip-path="url(#clip0_55_2362)">
<path d="M1.70893 0H22.2857C23.2286 0 24 0.776786 24 1.73036V22.2696C24 23.2232 23.2286 24 22.2857 24H16.2763V20.4391C16.2763 19.1369 15.4164 17.4085 14.2376 16.7933C18.5211 16.35 20.5651 14.2169 20.5651 11.3215C20.5651 10.0762 20.0369 8.87279 19.1394 7.85829C19.4389 6.85132 19.8157 4.78476 19.0299 4C17.0954 4 15.9274 5.25604 15.6504 5.59206C14.6864 5.26033 13.6257 5.07354 12.5135 5.07354C11.4035 5.07354 10.3471 5.26033 9.38526 5.58991C9.10507 5.25174 7.93813 4 6.00791 4C5.2253 4.78368 5.59782 6.84165 5.89412 7.85078C4.99127 8.86742 4.45987 10.0741 4.45987 11.3215C4.45987 14.219 6.50711 16.3532 10.797 16.7944C10.053 17.183 9.4443 18.0064 9.09218 18.9007C8.43733 19.0038 7.74167 19.0306 7.27683 19.0306C6.31816 19.0306 6.07662 18.8782 5.56347 18.205C5.04817 17.533 4.50066 17.08 3.84044 16.8932C3.48295 16.8556 3.24677 17.1337 3.55703 17.3773C4.28583 17.8877 4.54212 18.6238 4.77338 19.288C4.87391 19.5768 4.96972 19.852 5.09755 20.0891C5.47758 20.7933 6.26127 21.1723 7.14264 21.1723H8.76153V24H1.70893C0.766071 24 0 23.2232 0 22.2696V1.73036C0 0.776786 0.766071 0 1.70893 0Z" fill="#333333"/>
</g>
<defs>
<clipPath id="clip0_55_2362">
<rect width="24" height="24" fill="white"/>
</clipPath>
</defs>
</svg>
