<svg width="56" height="56" viewBox="0 0 56 56" fill="none" xmlns="http://www.w3.org/2000/svg">
<rect x="0.5" y="0.5" width="55" height="55" rx="9.5" fill="white" stroke="#EAEAEA"/>
<path d="M27.5408 14.3305C27.7143 13.9275 28.2857 13.9275 28.4592 14.3305L31.632 21.698C31.8492 22.2023 32.3245 22.5476 32.8712 22.5983L40.8585 23.3391C41.2954 23.3797 41.472 23.9231 41.1424 24.2126L35.1159 29.5068C34.7034 29.8692 34.5218 30.428 34.6426 30.9636L36.4062 38.7889C36.5027 39.217 36.0405 39.5528 35.6632 39.3288L28.7658 35.2332C28.2938 34.9529 27.7062 34.9529 27.2342 35.2332L20.3368 39.3288C19.9595 39.5528 19.4973 39.2169 19.5938 38.7889L21.3574 30.9635C21.4782 30.4279 21.2966 29.8692 20.8841 29.5068L14.8576 24.2126C14.528 23.9231 14.7046 23.3797 15.1414 23.3391L23.1288 22.5983C23.6755 22.5476 24.1508 22.2023 24.368 21.698L27.5408 14.3305Z" stroke="#0A63A4"/>
</svg>
