<svg width="25" height="24" viewBox="0 0 25 24" fill="none" xmlns="http://www.w3.org/2000/svg">
<path fill-rule="evenodd" clip-rule="evenodd" d="M5.66663 0C2.9052 0 0.666626 2.23858 0.666626 5V19C0.666626 21.7614 2.9052 24 5.66663 24H19.6666C22.428 24 24.6666 21.7614 24.6666 19V5C24.6666 2.23858 22.4281 0 19.6666 0H5.66663ZM21.6666 4.14286C21.6666 3.512 21.1546 3 20.5238 3C19.8929 3 19.3809 3.512 19.3809 4.14286C19.3809 4.77371 19.8929 5.28571 20.5238 5.28571C21.1546 5.28571 21.6666 4.77371 21.6666 4.14286ZM19.3809 12.1429C19.3809 8.36114 16.3055 5.28571 12.5238 5.28571C8.74205 5.28571 5.66663 8.36114 5.66663 12.1429C5.66663 15.9246 8.74205 19 12.5238 19C16.3055 19 19.3809 15.9246 19.3809 12.1429ZM12.5238 7.57143C11.3114 7.57143 10.1486 8.05306 9.29128 8.91037C8.43397 9.76768 7.95234 10.9304 7.95234 12.1429C7.95234 13.3553 8.43397 14.518 9.29128 15.3753C10.1486 16.2327 11.3114 16.7143 12.5238 16.7143C13.7362 16.7143 14.8989 16.2327 15.7563 15.3753C16.6136 14.518 17.0952 13.3553 17.0952 12.1429C17.0952 10.9304 16.6136 9.76768 15.7563 8.91037C14.8989 8.05306 13.7362 7.57143 12.5238 7.57143Z" fill="#333333"/>
</svg>
