<svg width="40" height="40" viewBox="0 0 40 40" fill="none" xmlns="http://www.w3.org/2000/svg">
<mask id="mask0_2_1939" style="mask-type:alpha" maskUnits="userSpaceOnUse" x="1" y="1" width="38" height="38">
<path fill-rule="evenodd" clip-rule="evenodd" d="M38.9572 38.6142C38.9573 38.614 38.9574 38.6138 38.9574 38.6136H38.9577V1.17233C38.9577 1.17162 38.957 1.1709 38.9563 1.1709H1.51462C1.5139 1.1709 1.51318 1.17162 1.51318 1.17233V38.6136C1.51318 38.6144 1.5139 38.6151 1.51462 38.6151H38.9559C38.9564 38.6151 38.9569 38.6147 38.9572 38.6142ZM11.7714 30.1552C11.7517 30.1354 11.7352 30.096 11.7352 30.0676H11.7349V9.49881C11.7349 9.47047 11.7503 9.43066 11.7697 9.40986L12.4134 8.71478C12.4328 8.69397 12.4716 8.67712 12.4999 8.67712H14.7082C14.7365 8.67712 14.7752 8.69397 14.7946 8.71478L15.4233 9.38906C15.4427 9.40986 15.4585 9.44967 15.4585 9.47801V18.1415C15.4585 18.1698 15.4746 18.1766 15.4947 18.1565L24.9027 8.71298C24.9225 8.69326 24.9619 8.67676 24.9902 8.67676H28.0615C28.0894 8.67676 28.1221 8.69792 28.1332 8.72374L28.57 9.72835C28.5812 9.75453 28.5905 9.79865 28.5905 9.82698V9.96614C28.5905 9.99448 28.5743 10.0336 28.5543 10.0537L20.9801 17.5923C20.96 17.6124 20.9567 17.6476 20.9729 17.6709L29.2077 29.6071C29.2239 29.6304 29.2264 29.6699 29.2135 29.695L28.6497 30.7875C28.6367 30.8126 28.603 30.833 28.5747 30.833H25.4676C25.4396 30.833 25.4034 30.8137 25.3876 30.7903L18.3475 20.3677C18.3317 20.344 18.3019 20.3411 18.2815 20.3605L15.4951 23.0217C15.4746 23.0411 15.4578 23.0802 15.4578 23.1085V30.0676C15.4578 30.0956 15.4416 30.1351 15.4215 30.1552L14.7806 30.7961C14.7609 30.8158 14.7214 30.8323 14.6931 30.8323H12.4999C12.4719 30.8323 12.4325 30.8162 12.4124 30.7961L11.7714 30.1552Z" fill="#D00000"/>
</mask>
<g mask="url(#mask0_2_1939)">
<rect x="-5.5" y="-4" width="52" height="48" fill="#ACB5BB"/>
</g>
</svg>
