<svg width="36" height="49" viewBox="0 0 36 49" fill="none" xmlns="http://www.w3.org/2000/svg">
<path d="M1.22994 3.27273H3.1646L5.7555 9.59659H5.85778L8.44869 3.27273H10.3833V12H8.8663V6.00426H8.78533L6.3734 11.9744H5.23988L2.82795 5.99148H2.74698V12H1.22994V3.27273ZM19.9032 7.63636C19.9032 8.5767 19.7271 9.3821 19.3748 10.0526C19.0254 10.7202 18.5481 11.2315 17.943 11.5866C17.3407 11.9418 16.6575 12.1193 15.8933 12.1193C15.1291 12.1193 14.4444 11.9418 13.8393 11.5866C13.237 11.2287 12.7598 10.7159 12.4075 10.0483C12.0581 9.37784 11.8833 8.57386 11.8833 7.63636C11.8833 6.69602 12.0581 5.89205 12.4075 5.22443C12.7598 4.55398 13.237 4.04119 13.8393 3.68608C14.4444 3.33097 15.1291 3.15341 15.8933 3.15341C16.6575 3.15341 17.3407 3.33097 17.943 3.68608C18.5481 4.04119 19.0254 4.55398 19.3748 5.22443C19.7271 5.89205 19.9032 6.69602 19.9032 7.63636ZM18.3137 7.63636C18.3137 6.97443 18.2101 6.41619 18.0027 5.96165C17.7981 5.50426 17.514 5.15909 17.1504 4.92614C16.7868 4.69034 16.3677 4.57244 15.8933 4.57244C15.4189 4.57244 14.9998 4.69034 14.6362 4.92614C14.2725 5.15909 13.987 5.50426 13.7797 5.96165C13.5751 6.41619 13.4728 6.97443 13.4728 7.63636C13.4728 8.2983 13.5751 8.85795 13.7797 9.31534C13.987 9.76989 14.2725 10.1151 14.6362 10.3509C14.9998 10.5838 15.4189 10.7003 15.8933 10.7003C16.3677 10.7003 16.7868 10.5838 17.1504 10.3509C17.514 10.1151 17.7981 9.76989 18.0027 9.31534C18.2101 8.85795 18.3137 8.2983 18.3137 7.63636ZM21.3979 12V3.27273H24.6706C25.3411 3.27273 25.9036 3.3892 26.3581 3.62216C26.8155 3.85511 27.1607 4.18182 27.3936 4.60227C27.6294 5.01989 27.7473 5.5071 27.7473 6.06392C27.7473 6.62358 27.628 7.10937 27.3894 7.52131C27.1536 7.9304 26.8056 8.24716 26.3453 8.47159C25.8851 8.69318 25.3198 8.80398 24.6493 8.80398H22.3184V7.49148H24.4363C24.8283 7.49148 25.1493 7.4375 25.3993 7.32955C25.6493 7.21875 25.834 7.05824 25.9533 6.84801C26.0755 6.63494 26.1365 6.37358 26.1365 6.06392C26.1365 5.75426 26.0755 5.49006 25.9533 5.27131C25.8311 5.04972 25.6451 4.8821 25.3951 4.76847C25.1451 4.65199 24.8226 4.59375 24.4277 4.59375H22.9789V12H21.3979ZM25.9064 8.04545L28.0669 12H26.3027L24.1806 8.04545H25.9064ZM29.2026 12V3.27273H34.8787V4.59801H30.7836V6.96733H34.5847V8.29261H30.7836V10.6747H34.9128V12H29.2026Z" fill="#595959"/>
<path opacity="0.5" d="M13 43L18 48L23 43" stroke="#595959" stroke-width="2" stroke-linecap="round" stroke-linejoin="round"/>
<path d="M13 36L18 41M18 41L23 36M18 41V27.5" stroke="#595959" stroke-width="2" stroke-linecap="round" stroke-linejoin="round"/>
</svg>
