<svg width="54" height="54" viewBox="0 0 54 54" fill="none" xmlns="http://www.w3.org/2000/svg">
<path d="M37.125 21.1502L16.875 9.47266" stroke="#333333" stroke-width="2" stroke-linecap="round" stroke-linejoin="round"/>
<path d="M47.25 35.9993V17.9993C47.2492 17.2102 47.0409 16.4351 46.646 15.7519C46.251 15.0687 45.6834 14.5014 45 14.1068L29.25 5.10679C28.5659 4.71183 27.7899 4.50391 27 4.50391C26.2101 4.50391 25.4341 4.71183 24.75 5.10679L9 14.1068C8.31659 14.5014 7.74896 15.0687 7.35404 15.7519C6.95912 16.4351 6.75081 17.2102 6.75 17.9993V35.9993C6.75081 36.7884 6.95912 37.5635 7.35404 38.2467C7.74896 38.9299 8.31659 39.4972 9 39.8918L24.75 48.8918C25.4341 49.2867 26.2101 49.4947 27 49.4947C27.7899 49.4947 28.5659 49.2867 29.25 48.8918L45 39.8918C45.6834 39.4972 46.251 38.9299 46.646 38.2467C47.0409 37.5635 47.2492 36.7884 47.25 35.9993Z" stroke="#333333" stroke-width="2" stroke-linecap="round" stroke-linejoin="round"/>
<path d="M7.35547 15.6602L26.998 27.0227L46.6405 15.6602" stroke="#333333" stroke-width="2" stroke-linecap="round" stroke-linejoin="round"/>
<path d="M27 49.68V27" stroke="#333333" stroke-width="2" stroke-linecap="round" stroke-linejoin="round"/>
</svg>
