<svg width="39" height="39" viewBox="0 0 39 39" fill="none" xmlns="http://www.w3.org/2000/svg">
<path d="M19.0397 0.926457C17.4922 0.933648 16.0146 1.06561 14.7152 1.29578C10.8835 1.97265 10.1881 3.38885 10.1881 6.00181V9.452H19.2389V10.6018H10.1881H6.7919C4.16138 10.6018 1.85631 12.1831 1.13724 15.1897C0.306086 18.6365 0.269289 20.7903 1.13724 24.3891C1.78069 27.0689 3.3174 28.9769 5.94792 28.9769H9.06017V24.8414C9.06017 21.8538 11.6451 19.2172 14.7148 19.2172H23.7555C26.2723 19.2172 28.2826 17.145 28.2826 14.6192V6.00046C28.2826 3.54752 26.2132 1.70629 23.7555 1.29443C22.2006 1.0356 20.5872 0.918017 19.0394 0.925107L19.0397 0.926457ZM14.1446 3.70112C15.0798 3.70112 15.8431 4.47725 15.8431 5.43128C15.8431 6.38194 15.0794 7.15097 14.1446 7.15097C13.2065 7.15097 12.4462 6.38228 12.4462 5.43128C12.4462 4.47725 13.2065 3.70112 14.1446 3.70112Z" fill="url(#paint0_linear_2_1880)"/>
<path d="M29.41 10.5977V14.6184C29.41 17.7347 26.768 20.3574 23.7553 20.3574H14.7146C12.238 20.3574 10.1875 22.4768 10.1875 24.9554V33.5741C10.1875 36.0271 12.3207 37.47 14.7146 38.1721C17.5797 39.0148 20.3288 39.167 23.7553 38.1721C26.0341 37.5125 28.2824 36.1844 28.2824 33.5741V30.124H19.2417V28.9741H28.2824H32.8095C35.44 28.9741 36.4217 27.1393 37.3366 24.3863C38.2815 21.5508 38.2414 18.8227 37.3366 15.1869C36.6864 12.5682 35.4448 10.599 32.8095 10.599H29.4133L29.41 10.5977ZM24.3258 32.4263C25.264 32.4263 26.0243 33.195 26.0243 34.146C26.0243 35.1001 25.264 35.8762 24.3258 35.8762C23.3907 35.8762 22.6274 35.1001 22.6274 34.146C22.6274 33.1954 23.391 32.4263 24.3258 32.4263Z" fill="url(#paint1_linear_2_1880)"/>
<mask id="mask0_2_1880" style="mask-type:alpha" maskUnits="userSpaceOnUse" x="0" y="0" width="39" height="39">
<path d="M19.0397 0.926457C17.4922 0.933648 16.0146 1.06561 14.7152 1.29578C10.8835 1.97265 10.1881 3.38885 10.1881 6.00181V9.452H19.2389V10.6018H10.1881H6.7919C4.16138 10.6018 1.85631 12.1831 1.13724 15.1897C0.306086 18.6365 0.269289 20.7903 1.13724 24.3891C1.78069 27.0689 3.3174 28.9769 5.94792 28.9769H9.06017V24.8414C9.06017 21.8538 11.6451 19.2172 14.7148 19.2172H23.7555C26.2723 19.2172 28.2826 17.145 28.2826 14.6192V6.00046C28.2826 3.54752 26.2132 1.70629 23.7555 1.29443C22.2006 1.0356 20.5872 0.918017 19.0394 0.925107L19.0397 0.926457ZM14.1446 3.70112C15.0798 3.70112 15.8431 4.47725 15.8431 5.43128C15.8431 6.38194 15.0794 7.15097 14.1446 7.15097C13.2065 7.15097 12.4462 6.38228 12.4462 5.43128C12.4462 4.47725 13.2065 3.70112 14.1446 3.70112Z" fill="url(#paint2_linear_2_1880)"/>
<path d="M29.41 10.5977V14.6184C29.41 17.7347 26.768 20.3574 23.7553 20.3574H14.7146C12.238 20.3574 10.1875 22.4768 10.1875 24.9554V33.5741C10.1875 36.0271 12.3207 37.47 14.7146 38.1721C17.5797 39.0148 20.3288 39.167 23.7553 38.1721C26.0341 37.5125 28.2824 36.1844 28.2824 33.5741V30.124H19.2417V28.9741H28.2824H32.8095C35.44 28.9741 36.4217 27.1393 37.3366 24.3863C38.2815 21.5508 38.2414 18.8227 37.3366 15.1869C36.6864 12.5682 35.4448 10.599 32.8095 10.599H29.4133L29.41 10.5977ZM24.3258 32.4263C25.264 32.4263 26.0243 33.195 26.0243 34.146C26.0243 35.1001 25.264 35.8762 24.3258 35.8762C23.3907 35.8762 22.6274 35.1001 22.6274 34.146C22.6274 33.1954 23.391 32.4263 24.3258 32.4263Z" fill="url(#paint3_linear_2_1880)"/>
</mask>
<g mask="url(#mask0_2_1880)">
<rect x="-6.5" y="-4" width="52" height="48" fill="#ACB5BB"/>
</g>
<defs>
<linearGradient id="paint0_linear_2_1880" x1="0.4994" y1="0.925714" x2="21.3786" y2="18.7112" gradientUnits="userSpaceOnUse">
<stop stop-color="#5A9FD4"/>
<stop offset="1" stop-color="#306998"/>
</linearGradient>
<linearGradient id="paint1_linear_2_1880" x1="24.1123" y1="33.8672" x2="16.6101" y2="23.3706" gradientUnits="userSpaceOnUse">
<stop stop-color="#FFD43B"/>
<stop offset="1" stop-color="#FFE873"/>
</linearGradient>
<linearGradient id="paint2_linear_2_1880" x1="0.4994" y1="0.925714" x2="21.3786" y2="18.7112" gradientUnits="userSpaceOnUse">
<stop stop-color="#5A9FD4"/>
<stop offset="1" stop-color="#306998"/>
</linearGradient>
<linearGradient id="paint3_linear_2_1880" x1="24.1123" y1="33.8672" x2="16.6101" y2="23.3706" gradientUnits="userSpaceOnUse">
<stop stop-color="#FFD43B"/>
<stop offset="1" stop-color="#FFE873"/>
</linearGradient>
</defs>
</svg>
