<svg width="110" height="28" viewBox="0 0 110 28" fill="none" xmlns="http://www.w3.org/2000/svg">
<g clip-path="url(#clip0_2_1948)">
<path d="M14.6907 6.70528L13.2172 8.17876C15.6284 10.5899 15.6284 14.4745 13.2172 16.841C10.8061 19.2522 6.92146 19.2522 4.55496 16.841C2.14381 14.4299 2.14381 10.5453 4.55496 8.17876L8.37261 4.36111L8.90842 3.8253V0.945312L3.14845 6.70528C-0.066412 9.92015 -0.066412 15.0997 3.14845 18.3145C6.36332 21.5294 11.5428 21.5294 14.6907 18.3145C17.9056 15.0773 17.9056 9.92015 14.6907 6.70528Z" fill="#EE4C2C"/>
<path d="M12.8823 5.2767C12.8823 5.86855 12.4025 6.34832 11.8106 6.34832C11.2188 6.34832 10.739 5.86855 10.739 5.2767C10.739 4.68485 11.2188 4.20508 11.8106 4.20508C12.4025 4.20508 12.8823 4.68485 12.8823 5.2767Z" fill="#EE4C2C"/>
<path d="M29.5815 14.0723H27.1034V20.4351H25.228V2.3291H29.7824C34.5377 2.3291 36.8149 4.67328 36.8149 7.95512C36.8819 11.996 34.0689 14.0723 29.5815 14.0723ZM29.7824 4.13746C29.5815 4.13746 27.1703 4.13746 27.1703 4.13746V12.4649L29.7154 12.3979C33.1312 12.3309 35.0066 10.9914 35.0066 8.17837C35.0066 5.54397 33.1312 4.13746 29.7824 4.13746Z" fill="black"/>
<path d="M45.2094 20.3684L44.1377 23.2484C42.9322 26.4633 41.6596 27.401 39.8513 27.401C38.8466 27.401 38.1099 27.1331 37.3062 26.7982L37.842 25.1238C38.4448 25.4587 39.1145 25.7266 39.8513 25.7266C40.8559 25.7266 41.5926 25.1907 42.5973 22.6456L43.468 20.3015L38.3108 7.21875H40.2531L44.4056 18.1582L48.4912 7.21875H50.3665L45.2094 20.3684Z" fill="black"/>
<path d="M56.4837 4.13689V20.5015H54.6084V4.13689H48.2456V2.39551H62.8018V4.13689C62.7795 4.13689 56.4837 4.13689 56.4837 4.13689Z" fill="black"/>
<path d="M68.0927 20.8369C64.409 20.8369 61.73 18.0909 61.73 13.8714C61.73 9.65188 64.543 6.83887 68.2937 6.83887C72.0443 6.83887 74.6564 9.5849 74.6564 13.8044C74.5895 18.0239 71.7764 20.8369 68.0927 20.8369ZM68.1597 8.51328C65.3467 8.51328 63.5383 10.7235 63.5383 13.8714C63.5383 17.0863 65.4137 19.2965 68.2267 19.2965C71.0397 19.2965 72.8481 17.0863 72.8481 13.9384C72.8481 10.6565 70.9727 8.51328 68.1597 8.51328Z" fill="black"/>
<path d="M79.1438 20.5019H77.3354V7.21826L79.1438 6.81641V9.62941C80.0145 7.95501 81.2871 6.81641 83.0284 6.81641C83.8991 6.81641 84.7029 7.08431 85.3726 7.41919L84.9038 9.0936C84.301 8.75872 83.6312 8.49082 82.8945 8.49082C81.488 8.49082 80.2154 9.56244 79.1438 11.9066V20.5019Z" fill="black"/>
<path d="M92.4276 20.8369C88.409 20.8369 85.9309 17.9569 85.9309 13.8714C85.9309 9.71885 88.6769 6.83887 92.4276 6.83887C94.035 6.83887 95.4416 7.24073 96.5801 7.97747L96.1113 9.5849C95.1067 8.91514 93.8341 8.51328 92.4276 8.51328C89.5476 8.51328 87.8062 10.6565 87.8062 13.8044C87.8062 17.0193 89.6816 19.1625 92.4946 19.1625C93.8341 19.1625 95.1736 18.7607 96.1783 18.0909L96.5801 19.7653C95.3746 20.4351 93.9681 20.8369 92.4276 20.8369Z" fill="black"/>
<path d="M107.654 20.5022V11.9069C107.654 9.56272 106.716 8.55808 104.841 8.55808C103.3 8.55808 101.827 9.3618 100.755 10.4334V20.5022H98.9468V0.989749L100.755 0.587891V8.98226C102.162 7.57576 103.903 6.906 105.377 6.906C107.922 6.906 109.529 8.5804 109.529 11.4604V20.5245H107.654V20.5022Z" fill="black"/>
<mask id="mask0_2_1948" style="mask-type:alpha" maskUnits="userSpaceOnUse" x="0" y="0" width="110" height="28">
<path d="M14.6907 6.70528L13.2172 8.17876C15.6284 10.5899 15.6284 14.4745 13.2172 16.841C10.8061 19.2522 6.92146 19.2522 4.55496 16.841C2.14381 14.4299 2.14381 10.5453 4.55496 8.17876L8.37261 4.36111L8.90842 3.8253V0.945312L3.14845 6.70528C-0.066412 9.92015 -0.066412 15.0997 3.14845 18.3145C6.36332 21.5294 11.5428 21.5294 14.6907 18.3145C17.9056 15.0773 17.9056 9.92015 14.6907 6.70528Z" fill="#EE4C2C"/>
<path d="M12.8823 5.2767C12.8823 5.86855 12.4025 6.34832 11.8106 6.34832C11.2188 6.34832 10.739 5.86855 10.739 5.2767C10.739 4.68485 11.2188 4.20508 11.8106 4.20508C12.4025 4.20508 12.8823 4.68485 12.8823 5.2767Z" fill="#EE4C2C"/>
<path d="M29.5815 14.0723H27.1034V20.4351H25.228V2.3291H29.7824C34.5377 2.3291 36.8149 4.67328 36.8149 7.95512C36.8819 11.996 34.0689 14.0723 29.5815 14.0723ZM29.7824 4.13746C29.5815 4.13746 27.1703 4.13746 27.1703 4.13746V12.4649L29.7154 12.3979C33.1312 12.3309 35.0066 10.9914 35.0066 8.17837C35.0066 5.54397 33.1312 4.13746 29.7824 4.13746Z" fill="black"/>
<path d="M45.2094 20.3684L44.1377 23.2484C42.9322 26.4633 41.6596 27.401 39.8513 27.401C38.8466 27.401 38.1099 27.1331 37.3062 26.7982L37.842 25.1238C38.4448 25.4587 39.1145 25.7266 39.8513 25.7266C40.8559 25.7266 41.5926 25.1907 42.5973 22.6456L43.468 20.3015L38.3108 7.21875H40.2531L44.4056 18.1582L48.4912 7.21875H50.3665L45.2094 20.3684Z" fill="black"/>
<path d="M56.4837 4.13689V20.5015H54.6084V4.13689H48.2456V2.39551H62.8018V4.13689C62.7795 4.13689 56.4837 4.13689 56.4837 4.13689Z" fill="black"/>
<path d="M68.0927 20.8369C64.409 20.8369 61.73 18.0909 61.73 13.8714C61.73 9.65188 64.543 6.83887 68.2937 6.83887C72.0443 6.83887 74.6564 9.5849 74.6564 13.8044C74.5895 18.0239 71.7764 20.8369 68.0927 20.8369ZM68.1597 8.51328C65.3467 8.51328 63.5383 10.7235 63.5383 13.8714C63.5383 17.0863 65.4137 19.2965 68.2267 19.2965C71.0397 19.2965 72.8481 17.0863 72.8481 13.9384C72.8481 10.6565 70.9727 8.51328 68.1597 8.51328Z" fill="black"/>
<path d="M79.1438 20.5019H77.3354V7.21826L79.1438 6.81641V9.62941C80.0145 7.95501 81.2871 6.81641 83.0284 6.81641C83.8991 6.81641 84.7029 7.08431 85.3726 7.41919L84.9038 9.0936C84.301 8.75872 83.6312 8.49082 82.8945 8.49082C81.488 8.49082 80.2154 9.56244 79.1438 11.9066V20.5019Z" fill="black"/>
<path d="M92.4276 20.8369C88.409 20.8369 85.9309 17.9569 85.9309 13.8714C85.9309 9.71885 88.6769 6.83887 92.4276 6.83887C94.035 6.83887 95.4416 7.24073 96.5801 7.97747L96.1113 9.5849C95.1067 8.91514 93.8341 8.51328 92.4276 8.51328C89.5476 8.51328 87.8062 10.6565 87.8062 13.8044C87.8062 17.0193 89.6816 19.1625 92.4946 19.1625C93.8341 19.1625 95.1736 18.7607 96.1783 18.0909L96.5801 19.7653C95.3746 20.4351 93.9681 20.8369 92.4276 20.8369Z" fill="black"/>
<path d="M107.654 20.5022V11.9069C107.654 9.56272 106.716 8.55808 104.841 8.55808C103.3 8.55808 101.827 9.3618 100.755 10.4334V20.5022H98.9468V0.989749L100.755 0.587891V8.98226C102.162 7.57576 103.903 6.906 105.377 6.906C107.922 6.906 109.529 8.5804 109.529 11.4604V20.5245H107.654V20.5022Z" fill="black"/>
</mask>
<g mask="url(#mask0_2_1948)">
<rect x="-5.5" y="-10" width="122" height="48" fill="#ACB5BB"/>
</g>
</g>
<defs>
<clipPath id="clip0_2_1948">
<rect width="108.948" height="27.0138" fill="white" transform="translate(0.603027 0.386719)"/>
</clipPath>
</defs>
</svg>
