<svg width="58" height="46" viewBox="0 0 58 46" fill="none" xmlns="http://www.w3.org/2000/svg">
<g clip-path="url(#clip0_2_1889)">
<path fill-rule="evenodd" clip-rule="evenodd" d="M28.7371 39.2093C12.9227 39.2093 0.102539 30.6233 0.102539 20.0319C0.102539 9.4405 12.9227 0.854492 28.7371 0.854492C44.5516 0.854492 57.3717 9.4405 57.3717 20.0319C57.3717 30.6233 44.5516 39.2093 28.7371 39.2093ZM33.1202 8.35221C21.0998 8.35221 11.3554 14.222 11.3554 21.4627C11.3554 28.7034 21.0998 34.5732 33.1202 34.5732C45.1404 34.5732 54.0112 30.5602 54.0112 21.4627C54.0112 12.3681 45.1404 8.35221 33.1202 8.35221Z" fill="url(#paint0_linear_2_1889)"/>
<path fill-rule="evenodd" clip-rule="evenodd" d="M43.7111 30.5577C43.7111 30.5577 45.4442 31.0807 46.4511 31.5901C46.8004 31.7669 47.4049 32.1197 47.8409 32.5829C48.268 33.0365 48.4763 33.4962 48.4763 33.4962L55.3064 45.0121L44.267 45.017L39.1047 35.3229C39.1047 35.3229 38.0476 33.5066 37.3972 32.98C36.8546 32.5407 36.6233 32.3843 36.0868 32.3843C35.7133 32.3843 33.4638 32.3843 33.4638 32.3843L33.4659 45.01L23.6973 45.0142V12.7627H43.314C43.314 12.7627 52.2487 12.9238 52.2487 21.4244C52.2487 29.9249 43.7111 30.5577 43.7111 30.5577ZM39.4621 19.7585L33.5483 19.7547L33.5453 25.2386L39.4621 25.2367C39.4621 25.2367 42.2021 25.2282 42.2021 22.4471C42.2021 19.61 39.4621 19.7585 39.4621 19.7585Z" fill="url(#paint1_linear_2_1889)"/>
<mask id="mask0_2_1889" style="mask-type:alpha" maskUnits="userSpaceOnUse" x="0" y="0" width="58" height="46">
<path fill-rule="evenodd" clip-rule="evenodd" d="M28.7371 39.2093C12.9227 39.2093 0.102539 30.6233 0.102539 20.0319C0.102539 9.4405 12.9227 0.854492 28.7371 0.854492C44.5516 0.854492 57.3717 9.4405 57.3717 20.0319C57.3717 30.6233 44.5516 39.2093 28.7371 39.2093ZM33.1202 8.35221C21.0998 8.35221 11.3554 14.222 11.3554 21.4627C11.3554 28.7034 21.0998 34.5732 33.1202 34.5732C45.1404 34.5732 54.0112 30.5602 54.0112 21.4627C54.0112 12.3681 45.1404 8.35221 33.1202 8.35221Z" fill="url(#paint2_linear_2_1889)"/>
<path fill-rule="evenodd" clip-rule="evenodd" d="M43.7111 30.5577C43.7111 30.5577 45.4442 31.0807 46.4511 31.5901C46.8004 31.7669 47.4049 32.1197 47.8409 32.5829C48.268 33.0365 48.4763 33.4962 48.4763 33.4962L55.3064 45.0121L44.267 45.017L39.1047 35.3229C39.1047 35.3229 38.0476 33.5066 37.3972 32.98C36.8546 32.5407 36.6233 32.3843 36.0868 32.3843C35.7133 32.3843 33.4638 32.3843 33.4638 32.3843L33.4659 45.01L23.6973 45.0142V12.7627H43.314C43.314 12.7627 52.2487 12.9238 52.2487 21.4244C52.2487 29.9249 43.7111 30.5577 43.7111 30.5577ZM39.4621 19.7585L33.5483 19.7547L33.5453 25.2386L39.4621 25.2367C39.4621 25.2367 42.2021 25.2282 42.2021 22.4471C42.2021 19.61 39.4621 19.7585 39.4621 19.7585Z" fill="url(#paint3_linear_2_1889)"/>
</mask>
<g mask="url(#mask0_2_1889)">
<rect x="-5.5" y="-7" width="68" height="60" fill="#ACB5BB"/>
</g>
</g>
<defs>
<linearGradient id="paint0_linear_2_1889" x1="0.102539" y1="0.854492" x2="35.5691" y2="53.8111" gradientUnits="userSpaceOnUse">
<stop stop-color="#CBCED0"/>
<stop offset="1" stop-color="#84838B"/>
</linearGradient>
<linearGradient id="paint1_linear_2_1889" x1="23.6973" y1="12.7627" x2="55.945" y2="44.3654" gradientUnits="userSpaceOnUse">
<stop stop-color="#276DC3"/>
<stop offset="1" stop-color="#165CAA"/>
</linearGradient>
<linearGradient id="paint2_linear_2_1889" x1="0.102539" y1="0.854492" x2="35.5691" y2="53.8111" gradientUnits="userSpaceOnUse">
<stop stop-color="#CBCED0"/>
<stop offset="1" stop-color="#84838B"/>
</linearGradient>
<linearGradient id="paint3_linear_2_1889" x1="23.6973" y1="12.7627" x2="55.945" y2="44.3654" gradientUnits="userSpaceOnUse">
<stop stop-color="#276DC3"/>
<stop offset="1" stop-color="#165CAA"/>
</linearGradient>
<clipPath id="clip0_2_1889">
<rect width="57.5" height="44.5546" fill="white" transform="translate(0.0302734 0.616211)"/>
</clipPath>
</defs>
</svg>
