<svg width="24" height="24" viewBox="0 0 24 24" fill="none" xmlns="http://www.w3.org/2000/svg">
<path d="M3.42857 0C1.5375 0 0 1.5375 0 3.42857V20.5714C0 22.4625 1.5375 24 3.42857 24H20.5714C22.4625 24 24 22.4625 24 20.5714V3.42857C24 1.5375 22.4625 0 20.5714 0H3.42857ZM20.5714 6.85714C20.5714 8.74821 19.0339 10.2857 17.1429 10.2857C16.3179 10.2857 15.5625 9.99643 14.9679 9.50893L10.3982 12L14.9679 14.4911C15.5571 14.0036 16.3179 13.7143 17.1429 13.7143C19.0339 13.7143 20.5714 15.2518 20.5714 17.1429C20.5714 19.0339 19.0339 20.5714 17.1429 20.5714C15.2518 20.5714 13.7143 19.0339 13.7143 17.1429C13.7143 17.0089 13.7196 16.8804 13.7357 16.7518L9.34821 14.3571C8.72143 15.0161 7.8375 15.4286 6.85714 15.4286C4.96607 15.4286 3.42857 13.8911 3.42857 12C3.42857 10.1089 4.96607 8.57143 6.85714 8.57143C7.8375 8.57143 8.72143 8.98393 9.34821 9.64286L13.7357 7.24821C13.7196 7.11964 13.7143 6.98571 13.7143 6.85714C13.7143 4.96607 15.2518 3.42857 17.1429 3.42857C19.0339 3.42857 20.5714 4.96607 20.5714 6.85714Z" fill="#333333"/>
</svg>
