<svg width="40" height="40" viewBox="0 0 40 40" fill="none" xmlns="http://www.w3.org/2000/svg">
<path opacity="0.2" d="M40 20C40 31.0457 31.0457 40 20 40C8.9543 40 0 31.0457 0 20C0 8.9543 8.9543 0 20 0C31.0457 0 40 8.9543 40 20ZM2 20C2 29.9411 10.0589 38 20 38C29.9411 38 38 29.9411 38 20C38 10.0589 29.9411 2 20 2C10.0589 2 2 10.0589 2 20Z" fill="#0A63A4"/>
<path d="M21.75 24.75L26.75 19.75M26.75 19.75L21.75 14.75M26.75 19.75L13.25 19.75" stroke="#0A63A4" stroke-width="2" stroke-linecap="round" stroke-linejoin="round"/>
<path d="M20 1C20 0.447715 20.448 -0.00260814 20.9996 0.0249943C23.2845 0.139335 25.5355 0.645022 27.6537 1.52241C30.0802 2.5275 32.285 4.00069 34.1421 5.85787C35.9993 7.71504 37.4725 9.91982 38.4776 12.3463C39.355 14.4645 39.8607 16.7155 39.975 19.0004C40.0026 19.552 39.5523 20 39 20C38.4477 20 38.0029 19.5519 37.9722 19.0005C37.8598 16.9784 37.4067 14.9872 36.6298 13.1117C35.7252 10.9278 34.3994 8.94353 32.7279 7.27208C31.0565 5.60062 29.0722 4.27475 26.8883 3.37017C25.0128 2.59331 23.0216 2.14023 20.9995 2.02777C20.4481 1.9971 20 1.55228 20 1Z" fill="#0A63A4"/>
</svg>
