<svg width="101" height="36" viewBox="0 0 101 36" fill="none" xmlns="http://www.w3.org/2000/svg">
<g clip-path="url(#clip0_2_1977)">
<path d="M12.925 14.5689C10.6584 14.3003 10.4905 11.2613 7.58594 11.53C6.17561 11.53 4.86602 12.1176 4.86602 13.4104C4.86602 15.358 7.87137 15.5427 9.68465 16.0296C12.7739 16.9698 15.7625 17.6078 15.7625 20.9657C15.7625 25.2303 12.4214 26.7078 8.00568 26.7078C4.31196 26.7078 0.567871 25.3982 0.567871 22.0067C0.567871 21.0665 1.47451 20.3277 2.34757 20.3277C3.45569 20.3277 3.84185 20.7979 4.22801 21.5702C5.08428 23.0812 6.04129 23.8872 8.42542 23.8872C9.93649 23.8872 11.4811 23.3163 11.4811 22.0067C11.4811 20.1431 9.58391 19.7401 7.61952 19.2868C4.14406 18.313 1.15551 17.8093 0.802926 13.9477C0.433554 7.36614 14.1507 7.1143 14.9398 12.8899C14.923 13.9309 13.9492 14.5689 12.925 14.5689ZM29.2446 8.79326C34.0632 8.79326 36.7999 12.8228 36.7999 17.7925C36.7999 22.779 34.1472 26.7918 29.2446 26.7918C26.5247 26.7918 24.8289 25.6333 23.6033 23.8536V30.4351C23.6033 32.4163 22.9653 33.3733 21.5213 33.3733C19.7584 33.3733 19.4394 32.2484 19.4394 30.4351V11.2949C19.4394 9.73348 20.0942 8.77648 21.5213 8.77648C22.8645 8.77648 23.6033 9.83422 23.6033 11.2949V11.8322C24.9632 10.1196 26.5247 8.79326 29.2446 8.79326ZM28.1029 23.3667C30.9235 23.3667 32.1828 20.7643 32.1828 17.7254C32.1828 14.7536 30.9068 12.084 28.1029 12.084C25.1647 12.084 23.8047 14.5017 23.8047 17.7254C23.8047 20.865 25.1815 23.3667 28.1029 23.3667ZM40.0739 13.4944C40.0739 10.0357 44.053 8.79326 47.9147 8.79326C53.3377 8.79326 55.5707 10.3715 55.5707 15.6099V20.6467C55.5707 21.8388 56.3095 24.2229 56.3095 24.9449C56.3095 26.0362 55.3021 26.7246 54.2276 26.7246C53.0355 26.7246 52.1456 25.3143 51.5076 24.3069C49.7447 25.7172 47.8811 26.7246 45.0268 26.7246C41.8704 26.7246 39.3855 24.861 39.3855 21.7884C39.3855 19.0685 41.3331 17.5071 43.6837 16.9698C43.6837 16.9866 51.239 15.1901 51.239 15.1733C51.239 12.8564 50.4163 11.8322 47.9818 11.8322C45.8327 11.8322 44.7414 12.4198 43.9019 13.7126C43.2304 14.6864 43.3143 15.2741 42.0215 15.2741C40.9805 15.2573 40.0739 14.5521 40.0739 13.4944ZM46.5211 23.8872C49.8287 23.8872 51.2222 22.141 51.2222 18.6656V17.9268C50.3324 18.229 46.7394 19.1189 45.7656 19.27C44.7246 19.4715 43.6837 20.2438 43.6837 21.4694C43.7172 22.8126 45.094 23.8872 46.5211 23.8872ZM70.8157 2.22852C75.4832 2.22852 80.5369 5.0156 80.5369 9.44806C80.5369 10.5898 79.6807 11.53 78.5557 11.53C77.0279 11.53 76.8096 10.7073 76.138 9.54879C75.0131 7.48367 73.6868 6.10692 70.7989 6.10692C66.3329 6.07334 64.3349 9.90138 64.3349 14.6696C64.3349 19.4715 65.9971 22.9301 70.6143 22.9301C73.6868 22.9301 75.3825 21.1504 76.2556 18.8503C76.6082 17.7925 77.2462 16.7683 78.5725 16.7683C79.6135 16.7683 80.6545 17.8261 80.6545 18.9678C80.6545 23.6689 75.8526 26.9261 70.9165 26.9261C65.5102 26.9261 62.4545 24.6427 60.7755 20.8482C59.9528 19.0349 59.4324 17.1545 59.4324 14.5689C59.3988 7.2822 63.6465 2.22852 70.8157 2.22852ZM97.5113 8.79326C98.7033 8.79326 99.3917 9.56559 99.3917 10.7744C99.3917 11.2613 99.0055 12.2351 98.8544 12.7556L93.1124 27.8495C91.8364 31.1235 90.8793 33.3901 86.5308 33.3901C84.4657 33.3901 82.6692 33.2054 82.6692 31.4089C82.6692 30.368 83.4583 29.8475 84.5497 29.8475C84.7511 29.8475 85.0869 29.9482 85.2884 29.9482C85.6074 29.9482 85.8257 30.0489 86.0271 30.0489C88.2098 30.0489 88.512 27.8159 89.2843 26.2713L83.7438 12.5541C83.4247 11.8154 83.2065 11.3117 83.2065 10.8752C83.2065 9.66633 84.1467 8.79326 85.4059 8.79326C86.8163 8.79326 87.3703 9.90138 87.7229 11.1102L91.383 21.9899L95.0432 11.9329C95.5972 10.3715 95.6476 8.79326 97.5113 8.79326Z" fill="#09A3D5"/>
<mask id="mask0_2_1977" style="mask-type:alpha" maskUnits="userSpaceOnUse" x="0" y="2" width="100" height="32">
<path d="M12.925 14.5689C10.6584 14.3003 10.4905 11.2613 7.58594 11.53C6.17561 11.53 4.86602 12.1176 4.86602 13.4104C4.86602 15.358 7.87137 15.5427 9.68465 16.0296C12.7739 16.9698 15.7625 17.6078 15.7625 20.9657C15.7625 25.2303 12.4214 26.7078 8.00568 26.7078C4.31196 26.7078 0.567871 25.3982 0.567871 22.0067C0.567871 21.0665 1.47451 20.3277 2.34757 20.3277C3.45569 20.3277 3.84185 20.7979 4.22801 21.5702C5.08428 23.0812 6.04129 23.8872 8.42542 23.8872C9.93649 23.8872 11.4811 23.3163 11.4811 22.0067C11.4811 20.1431 9.58391 19.7401 7.61952 19.2868C4.14406 18.313 1.15551 17.8093 0.802926 13.9477C0.433554 7.36614 14.1507 7.1143 14.9398 12.8899C14.923 13.9309 13.9492 14.5689 12.925 14.5689ZM29.2446 8.79326C34.0632 8.79326 36.7999 12.8228 36.7999 17.7925C36.7999 22.779 34.1472 26.7918 29.2446 26.7918C26.5247 26.7918 24.8289 25.6333 23.6033 23.8536V30.4351C23.6033 32.4163 22.9653 33.3733 21.5213 33.3733C19.7584 33.3733 19.4394 32.2484 19.4394 30.4351V11.2949C19.4394 9.73348 20.0942 8.77648 21.5213 8.77648C22.8645 8.77648 23.6033 9.83422 23.6033 11.2949V11.8322C24.9632 10.1196 26.5247 8.79326 29.2446 8.79326ZM28.1029 23.3667C30.9235 23.3667 32.1828 20.7643 32.1828 17.7254C32.1828 14.7536 30.9068 12.084 28.1029 12.084C25.1647 12.084 23.8047 14.5017 23.8047 17.7254C23.8047 20.865 25.1815 23.3667 28.1029 23.3667ZM40.0739 13.4944C40.0739 10.0357 44.053 8.79326 47.9147 8.79326C53.3377 8.79326 55.5707 10.3715 55.5707 15.6099V20.6467C55.5707 21.8388 56.3095 24.2229 56.3095 24.9449C56.3095 26.0362 55.3021 26.7246 54.2276 26.7246C53.0355 26.7246 52.1456 25.3143 51.5076 24.3069C49.7447 25.7172 47.8811 26.7246 45.0268 26.7246C41.8704 26.7246 39.3855 24.861 39.3855 21.7884C39.3855 19.0685 41.3331 17.5071 43.6837 16.9698C43.6837 16.9866 51.239 15.1901 51.239 15.1733C51.239 12.8564 50.4163 11.8322 47.9818 11.8322C45.8327 11.8322 44.7414 12.4198 43.9019 13.7126C43.2304 14.6864 43.3143 15.2741 42.0215 15.2741C40.9805 15.2573 40.0739 14.5521 40.0739 13.4944ZM46.5211 23.8872C49.8287 23.8872 51.2222 22.141 51.2222 18.6656V17.9268C50.3324 18.229 46.7394 19.1189 45.7656 19.27C44.7246 19.4715 43.6837 20.2438 43.6837 21.4694C43.7172 22.8126 45.094 23.8872 46.5211 23.8872ZM70.8157 2.22852C75.4832 2.22852 80.5369 5.0156 80.5369 9.44806C80.5369 10.5898 79.6807 11.53 78.5557 11.53C77.0279 11.53 76.8096 10.7073 76.138 9.54879C75.0131 7.48367 73.6868 6.10692 70.7989 6.10692C66.3329 6.07334 64.3349 9.90138 64.3349 14.6696C64.3349 19.4715 65.9971 22.9301 70.6143 22.9301C73.6868 22.9301 75.3825 21.1504 76.2556 18.8503C76.6082 17.7925 77.2462 16.7683 78.5725 16.7683C79.6135 16.7683 80.6545 17.8261 80.6545 18.9678C80.6545 23.6689 75.8526 26.9261 70.9165 26.9261C65.5102 26.9261 62.4545 24.6427 60.7755 20.8482C59.9528 19.0349 59.4324 17.1545 59.4324 14.5689C59.3988 7.2822 63.6465 2.22852 70.8157 2.22852ZM97.5113 8.79326C98.7033 8.79326 99.3917 9.56559 99.3917 10.7744C99.3917 11.2613 99.0055 12.2351 98.8544 12.7556L93.1124 27.8495C91.8364 31.1235 90.8793 33.3901 86.5308 33.3901C84.4657 33.3901 82.6692 33.2054 82.6692 31.4089C82.6692 30.368 83.4583 29.8475 84.5497 29.8475C84.7511 29.8475 85.0869 29.9482 85.2884 29.9482C85.6074 29.9482 85.8257 30.0489 86.0271 30.0489C88.2098 30.0489 88.512 27.8159 89.2843 26.2713L83.7438 12.5541C83.4247 11.8154 83.2065 11.3117 83.2065 10.8752C83.2065 9.66633 84.1467 8.79326 85.4059 8.79326C86.8163 8.79326 87.3703 9.90138 87.7229 11.1102L91.383 21.9899L95.0432 11.9329C95.5972 10.3715 95.6476 8.79326 97.5113 8.79326Z" fill="#09A3D5"/>
</mask>
<g mask="url(#mask0_2_1977)">
<rect x="-10.5" y="-6" width="122" height="48" fill="#ACB5BB"/>
</g>
</g>
<defs>
<clipPath id="clip0_2_1977">
<rect width="99.9487" height="35.7619" fill="white" transform="translate(0.55127 0.0126953)"/>
</clipPath>
</defs>
</svg>
