<svg width="54" height="54" viewBox="0 0 54 54" fill="none" xmlns="http://www.w3.org/2000/svg">
<path d="M18.5625 6.75V10.125M10.125 18.5625H6.75M47.25 18.5625H43.875M10.125 27H6.75M47.25 27H43.875M10.125 35.4375H6.75M47.25 35.4375H43.875M18.5625 43.875V47.25M27 6.75V10.125M27 43.875V47.25M35.4375 6.75V10.125M35.4375 43.875V47.25M15.1875 43.875H38.8125C40.1552 43.875 41.4428 43.3416 42.3922 42.3922C43.3416 41.4428 43.875 40.1552 43.875 38.8125V15.1875C43.875 13.8448 43.3416 12.5572 42.3922 11.6078C41.4428 10.6584 40.1552 10.125 38.8125 10.125H15.1875C13.8448 10.125 12.5572 10.6584 11.6078 11.6078C10.6584 12.5572 10.125 13.8448 10.125 15.1875V38.8125C10.125 40.1552 10.6584 41.4428 11.6078 42.3922C12.5572 43.3416 13.8448 43.875 15.1875 43.875ZM16.875 16.875H37.125V37.125H16.875V16.875Z" stroke="#333333" stroke-width="2" stroke-linecap="round" stroke-linejoin="round"/>
</svg>
